<svg width="25" height="24" viewBox="0 0 25 24" fill="none" xmlns="http://www.w3.org/2000/svg">
<path fill-rule="evenodd" clip-rule="evenodd" d="M12.5 0C5.5975 0 0 5.5975 0 12.5C0 18.025 3.582 22.6675 8.54875 24.325C9.17375 24.4408 9.4 24.0575 9.4 23.725C9.4 23.425 9.3875 22.5408 9.3875 21.4917C6.25 22.0958 5.4375 20.725 5.1875 20.0167C5.05 19.6417 4.45 18.55 3.91667 18.25C3.475 18.0167 2.85 17.4125 3.90417 17.4C4.9 17.3875 5.61167 18.3167 5.84583 18.7042C6.9875 20.5917 8.8 20.0667 9.44667 19.7375C9.5625 18.9125 9.90833 18.3667 10.2917 18.0667C7.49167 17.7667 4.575 16.7 4.575 11.8917C4.575 10.525 5.0625 9.39167 5.87083 8.50833C5.74167 8.1875 5.3 6.90833 5.98833 5.18333C5.98833 5.18333 7.0625 4.85 9.4 6.46667C10.4 6.18333 11.4625 6.04167 12.525 6.04167C13.5875 6.04167 14.65 6.18333 15.65 6.46667C17.9875 4.8375 19.0617 5.18333 19.0617 5.18333C19.75 6.90833 19.3083 8.1875 19.1792 8.50833C19.9875 9.39167 20.475 10.5125 20.475 11.8917C20.475 16.7125 17.5458 17.7667 14.7458 18.0667C15.225 18.4417 15.6375 19.1625 15.6375 20.3125C15.6375 21.9625 15.625 23.3 15.625 23.725C15.625 24.0575 15.8512 24.45 16.4762 24.325C21.4183 22.6675 25 18.0125 25 12.5C25 5.5975 19.4025 0 12.5 0Z" fill="#161614"/>
</svg>
