<svg xmlns="http://www.w3.org/2000/svg" xmlns:xlink="http://www.w3.org/1999/xlink" viewBox="0 0 770.59 235.39"><defs><style>.cls-1{isolation:isolate;}.cls-2{fill:url(#linear-gradient);}.cls-3{fill:url(#linear-gradient-2);}.cls-4{mix-blend-mode:lighten;}.cls-5{fill:url(#linear-gradient-3);}.cls-6{fill:url(#linear-gradient-4);}.cls-7{fill:url(#linear-gradient-5);}.cls-8{fill:url(#linear-gradient-6);}.cls-9{fill:url(#linear-gradient-7);}.cls-10{fill:url(#linear-gradient-8);}.cls-11{fill:url(#linear-gradient-9);}.cls-12{mix-blend-mode:multiply;fill:url(#linear-gradient-10);}.cls-13{fill:#fff;}.cls-14{font-size:128.03px;fill:#231f20;font-family:Sansation-Bold, Sansation;font-weight:700;}.cls-15{font-size:17.62px;fill:#248fd1;font-family:MyriadPro-Regular, Myriad Pro;}</style><linearGradient id="linear-gradient" x1="168.4" y1="194.21" x2="212.12" y2="383.66" gradientUnits="userSpaceOnUse"><stop offset="0" stop-color="#31baec"/><stop offset="1" stop-color="#213f97"/></linearGradient><linearGradient id="linear-gradient-2" x1="329.55" y1="212.03" x2="117.27" y2="385.03" xlink:href="#linear-gradient"/><linearGradient id="linear-gradient-3" x1="221.24" y1="328.85" x2="108.78" y2="176.1" xlink:href="#linear-gradient"/><linearGradient id="linear-gradient-4" x1="21.25" y1="19.06" x2="38.75" y2="121.42" xlink:href="#linear-gradient"/><linearGradient id="linear-gradient-5" x1="-2.5" y1="42.34" x2="11.29" y2="122.97" xlink:href="#linear-gradient"/><linearGradient id="linear-gradient-6" x1="4.39" y1="-0.26" x2="24.64" y2="118.12" xlink:href="#linear-gradient"/><linearGradient id="linear-gradient-7" x1="59.63" y1="71.81" x2="12.22" y2="116.43" xlink:href="#linear-gradient"/><linearGradient id="linear-gradient-8" x1="52.97" y1="79.79" x2="15.33" y2="115.21" xlink:href="#linear-gradient"/><linearGradient id="linear-gradient-9" x1="88.18" y1="78.39" x2="32.68" y2="130.62" xlink:href="#linear-gradient"/><linearGradient id="linear-gradient-10" x1="145.23" y1="215.34" x2="287.24" y2="541.19" xlink:href="#linear-gradient"/></defs><g class="cls-1"><g id="Layer_4" data-name="Layer 4"><path class="cls-2" d="M294.28,236.63H238.69V214.51c0-8.39-6.71-17.32-17.25-17.32H169.92c-7.82,0-15.25,8.93-15.25,17.32v22.12h-51c-12.66,0-22.53,7.9-22.53,21.49V262H110v28.17h18.38V278.9h13.12v11.27H128.42v22.55H110V290.17H81.16v86.47c0,13.58,9.87,29.07,22.53,29.07h12.89l-1.09,26.87L146,405.71H294.28c12.66,0,17.93-15.49,17.93-29.07V258.12C312.21,244.53,306.94,236.63,294.28,236.63Zm-71.34,0H165.17v-19.4c0-5.89,7.59-3.14,13.08-3.14h39.21c5.5,0,5.48-2.75,5.48,3.14Z" transform="translate(-15.52 -197.19)"/><path class="cls-3" d="M118.21,401.29H103.44c-12.36,0-20-12.67-20-24.41V293.16h23.39V314.4h23.39V293.16H142.8V275.78H126.61V289.3H110.42v-29h-27v-1.93c0-12.53,8.23-21.24,20-21.24H157.2V214.75c0-7.47,6-14.27,12.48-14.27h51.51c10,0,15.17,7.18,15.17,14.27v22.42H294c11.77,0,19.68,8.51,19.68,21.19V376.88c0,11.74-7.53,24.41-19.68,24.41h-149l-27.87,24.56ZM227.36,237.17v-19.7c0-6.78-3.76-7.34-8-7.34H175.72c-5.72,0-9.53,1.24-9.53,7.34v19.7Z" transform="translate(-15.52 -197.19)"/><g class="cls-4"><path class="cls-5" d="M83.43,293.16h23.39V314.4h23.39V293.16H142.8V275.78H126.61V289.3H110.42v-29h-27v-1.93c0-12.53,8.23-21.24,20-21.24H157.2V214.75c0-7.47,6-14.27,12.48-14.27h51.51c10,0,15.17,7.18,15.17,14.27v22.42H294a18.79,18.79,0,0,1,18.9,14.7l.26,1-.67.79a274.54,274.54,0,0,1-25.91,26.21,342.73,342.73,0,0,1-62.69,38.81,351.09,351.09,0,0,1-78.64,23.21c-17.89,2.13-36.94,3.36-60,3.9l-1.84,0Zm143.93-56v-19.7c0-6.78-3.76-7.34-8-7.34H175.72c-5.72,0-9.53,1.24-9.53,7.34v19.7Z" transform="translate(-15.52 -197.19)"/></g><rect class="cls-6" x="21" y="78.9" width="26.26" height="31"/><rect class="cls-7" y="109.9" width="21" height="16.91"/><rect class="cls-8" x="21" y="126.8" width="13.13" height="16.91"/><rect class="cls-9" x="21" y="81.72" width="26.26" height="28.18"/><rect class="cls-10" x="2.63" y="112.71" width="15.75" height="14.09"/><rect class="cls-11" x="21" y="129.62" width="10.5" height="14.09"/><path class="cls-12" d="M211.42,405.71l-106.63-24V335.26h32.87l10.19,12.42-3-37.78h30.59l11.65,18.55,26.13-5.7,12,5.64,24-56.49,63,67.36v39.17c0,13.51-6.64,27.28-19.23,27.28Z" transform="translate(-15.52 -197.19)"/><rect class="cls-13" x="131.28" y="112.71" width="31.51" height="73.26"/><rect class="cls-13" x="168.04" y="123.98" width="28.88" height="61.99"/><rect class="cls-13" x="204.79" y="78.9" width="28.88" height="107.08"/><rect class="cls-13" x="238.93" y="138.07" width="31.51" height="47.9"/><rect class="cls-13" x="89.27" y="138.07" width="28.88" height="47.9"/><text class="cls-14" transform="translate(309 170.13) scale(0.96 1)">TuniHire</text><text class="cls-15" transform="translate(591.79 195.47) scale(1.09 1)">Your contract is here !</text></g></g></svg>